<svg width="16" height="16" viewBox="0 0 16 16" fill="none" xmlns="http://www.w3.org/2000/svg">
<path d="M8 14.6666C6.82222 14.6666 5.86111 14.4805 5.11667 14.1083C4.37222 13.736 4 13.2555 4 12.6666C4 12.2777 4.16111 11.9388 4.48333 11.6499C4.80556 11.361 5.25 11.1333 5.81667 10.9666L6.2 12.2333C6.01111 12.2888 5.83889 12.3583 5.68333 12.4416C5.52778 12.5249 5.42222 12.5999 5.36667 12.6666C5.51111 12.8444 5.84444 12.9999 6.36667 13.1333C6.88889 13.2666 7.43333 13.3333 8 13.3333C8.56667 13.3333 9.11389 13.2666 9.64167 13.1333C10.1694 12.9999 10.5056 12.8444 10.65 12.6666C10.5944 12.5999 10.4889 12.5249 10.3333 12.4416C10.1778 12.3583 10.0056 12.2888 9.81667 12.2333L10.2 10.9666C10.7667 11.1333 11.2083 11.361 11.525 11.6499C11.8417 11.9388 12 12.2777 12 12.6666C12 13.2555 11.6278 13.736 10.8833 14.1083C10.1389 14.4805 9.17778 14.6666 8 14.6666ZM8 12.6666C7.87778 12.6666 7.76667 12.6305 7.66667 12.5583C7.56667 12.486 7.49444 12.3888 7.45 12.2666C7.19444 11.4777 6.87222 10.8166 6.48333 10.2833C6.09444 9.74992 5.71667 9.23881 5.35 8.74992C4.99444 8.26103 4.68611 7.75547 4.425 7.23325C4.16389 6.71103 4.03333 6.06659 4.03333 5.29992C4.03333 4.18881 4.41667 3.24992 5.18333 2.48325C5.95 1.71659 6.88889 1.33325 8 1.33325C9.11111 1.33325 10.05 1.71659 10.8167 2.48325C11.5833 3.24992 11.9667 4.18881 11.9667 5.29992C11.9667 6.06659 11.8389 6.71103 11.5833 7.23325C11.3278 7.75547 11.0167 8.26103 10.65 8.74992C10.2944 9.23881 9.91944 9.74992 9.525 10.2833C9.13056 10.8166 8.80556 11.4777 8.55 12.2666C8.50556 12.3888 8.43333 12.486 8.33333 12.5583C8.23333 12.6305 8.12222 12.6666 8 12.6666ZM8 6.71659C8.38889 6.71659 8.72222 6.5777 9 6.29992C9.27778 6.02214 9.41667 5.68881 9.41667 5.29992C9.41667 4.91103 9.27778 4.5777 9 4.29992C8.72222 4.02214 8.38889 3.88325 8 3.88325C7.61111 3.88325 7.27778 4.02214 7 4.29992C6.72222 4.5777 6.58333 4.91103 6.58333 5.29992C6.58333 5.68881 6.72222 6.02214 7 6.29992C7.27778 6.5777 7.61111 6.71659 8 6.71659Z" fill="white" fill-opacity="0.6"/>
</svg>
