<svg xmlns="http://www.w3.org/2000/svg" width="20" height="18" viewBox="0 0 20 18" fill="none">
  <path fill-rule="evenodd" clip-rule="evenodd" d="M2.25 2.25C2.11193 2.25 2 2.36193 2 2.5V3.25H8.43953L7.71459 2.34383C7.66715 2.28452 7.59532 2.25 7.51938 2.25H2.25ZM10.4806 3.25C10.4047 3.25 10.3329 3.21548 10.2854 3.15617L8.8859 1.40678C8.5538 0.991658 8.051 0.75 7.51938 0.75H2.25C1.2835 0.75 0.5 1.5335 0.5 2.5V15.5C0.5 16.4665 1.2835 17.25 2.25 17.25H17.75C18.7165 17.25 19.5 16.4665 19.5 15.5V5C19.5 4.0335 18.7165 3.25 17.75 3.25H10.4806ZM2 4.75V15.5C2 15.6381 2.11193 15.75 2.25 15.75H17.75C17.8881 15.75 18 15.6381 18 15.5V5C18 4.86193 17.8881 4.75 17.75 4.75H2Z" fill="white" fill-opacity="0.2"/>
</svg>