<svg xmlns="http://www.w3.org/2000/svg" width="16" height="18" viewBox="0 0 16 18" fill="none">
  <path d="M2.375 17.25C1.85938 17.25 1.41812 17.0655 1.05125 16.6965C0.68375 16.3269 0.5 15.8829 0.5 15.3643V6.87857C0.5 6.58 0.566562 6.29714 0.699687 6.03C0.832187 5.76286 1.01563 5.54286 1.25 5.37L6.875 1.12714C7.04688 1.00143 7.22656 0.907143 7.41406 0.844286C7.60156 0.781428 7.79688 0.75 8 0.75C8.20312 0.75 8.39844 0.781428 8.58594 0.844286C8.77344 0.907143 8.95312 1.00143 9.125 1.12714L14.75 5.37C14.9844 5.54286 15.1681 5.76286 15.3013 6.03C15.4338 6.29714 15.5 6.58 15.5 6.87857V15.3643C15.5 15.8829 15.3166 16.3269 14.9497 16.6965C14.5822 17.0655 14.1406 17.25 13.625 17.25H9.875V10.65H6.125V17.25H2.375Z" fill="white" fill-opacity="0.2"/>
</svg>