<svg xmlns="http://www.w3.org/2000/svg" width="16" height="16" viewBox="0 0 16 16" fill="none">
  <path d="M8 8C6.96875 8 6.08594 7.63281 5.35156 6.89844C4.61719 6.16406 4.25 5.28125 4.25 4.25C4.25 3.21875 4.61719 2.33594 5.35156 1.60156C6.08594 0.867188 6.96875 0.5 8 0.5C9.03125 0.5 9.91406 0.867188 10.6484 1.60156C11.3828 2.33594 11.75 3.21875 11.75 4.25C11.75 5.28125 11.3828 6.16406 10.6484 6.89844C9.91406 7.63281 9.03125 8 8 8ZM2.375 15.5C1.85938 15.5 1.41812 15.3166 1.05125 14.9497C0.68375 14.5822 0.5 14.1406 0.5 13.625V12.875C0.5 12.3438 0.636875 11.8553 0.910625 11.4097C1.18375 10.9647 1.54688 10.625 2 10.3906C2.96875 9.90625 3.95312 9.54281 4.95312 9.30031C5.95312 9.05844 6.96875 8.9375 8 8.9375C9.03125 8.9375 10.0469 9.05844 11.0469 9.30031C12.0469 9.54281 13.0312 9.90625 14 10.3906C14.4531 10.625 14.8162 10.9647 15.0894 11.4097C15.3631 11.8553 15.5 12.3438 15.5 12.875V13.625C15.5 14.1406 15.3166 14.5822 14.9497 14.9497C14.5822 15.3166 14.1406 15.5 13.625 15.5H2.375Z" fill="white" fill-opacity="0.2"/>
</svg>