<svg width="40" height="40" viewBox="0 0 40 40" fill="none" xmlns="http://www.w3.org/2000/svg">
<path d="M17.5044 8.8408C18.0798 7.85987 19.4349 7.73725 20.2052 8.47295C20.3153 8.57805 20.4134 8.70067 20.4956 8.8408L24.109 15.0005L30.493 15.7694C31.8904 15.9377 32.4956 17.5654 31.5271 18.5504L26.6437 23.517L27.9929 30.0167C28.2336 31.1764 27.1916 32.1385 26.073 31.9836C25.9132 31.9614 25.7519 31.9165 25.5925 31.8461L19 28.9348L12.4075 31.8461C11.1323 32.4093 9.73201 31.3421 10.0071 30.0167L11.3563 23.517L6.47288 18.5504C5.5044 17.5654 6.10963 15.9377 7.50695 15.7694L13.891 15.0005L17.5044 8.8408Z" fill="white" fill-opacity="0.88"/>
</svg>
