<svg width="12" height="12" viewBox="0 0 12 12" fill="none" xmlns="http://www.w3.org/2000/svg">
<g clip-path="url(#clip0_662_16587)">
<path d="M10 1H2C1.45 1 1 1.45 1 2V9.795C1 10.24 1.54 10.465 1.855 10.15L3 9H10C10.55 9 11 8.55 11 8V2C11 1.45 10.55 1 10 1ZM6.785 5.785L6.225 7.005C6.135 7.2 5.86 7.2 5.77 7.005L5.21 5.785L3.99 5.225C3.795 5.135 3.795 4.86 3.99 4.77L5.21 4.21L5.77 2.99C5.86 2.795 6.135 2.795 6.225 2.99L6.785 4.21L8.005 4.77C8.2 4.86 8.2 5.135 8.005 5.225L6.785 5.785Z" fill="white" fill-opacity="0.6"/>
</g>
<defs>
<clipPath id="clip0_662_16587">
<rect width="12" height="12" fill="white"/>
</clipPath>
</defs>
</svg>
