<svg width="200" height="200" viewBox="0 0 200 200" fill="none" xmlns="http://www.w3.org/2000/svg">
<path d="M102.312 138.669H27.9717L28.5457 136.875H53.595L54.169 135.082H78.1511L78.725 133.288H104.043L102.312 138.669ZM156.07 138.669H128.519L126.86 133.288H154.321L156.079 138.669H156.07ZM104.626 131.494H30.2856L30.8596 129.7H55.9089L56.4829 127.907H80.465L81.0389 126.113H106.357L104.626 131.494ZM153.721 131.494H126.295L124.635 126.113H151.963L153.721 131.494ZM106.94 124.319H32.5905L33.1645 122.526H58.2138L58.7878 120.732H82.7699L83.3439 118.938H108.662L106.931 124.319H106.94ZM151.371 124.319H124.07L122.411 118.938H149.613L151.371 124.319ZM149.03 117.144H121.855L120.573 113.001H110.582L109.245 117.144H34.9044L35.4784 115.351H60.5277L61.1017 113.557H85.0838L85.6578 111.763H147.263L149.021 117.144H149.03ZM156.698 104.588C153.667 106.633 150.268 108.328 146.573 109.629L146.68 109.97H37.2183L37.7923 108.176H62.8416L63.4156 106.382H87.3977L87.9717 104.588H156.698ZM164.599 97.4135C162.994 99.3866 161.164 101.18 159.147 102.795H39.5232L40.0972 101.001H65.1466L65.7206 99.2072H89.7026L90.2766 97.4135H164.591H164.599ZM116.178 95.6198H41.8372L42.4111 93.8261H67.4605L68.0345 92.0323H92.0165L92.5905 90.2386H117.909L116.178 95.6198ZM169.075 90.2386C168.196 92.1489 167.156 93.9426 165.963 95.6198H132.913C136.949 94.7498 140.052 93.0189 142.106 90.2386H169.066H169.075ZM118.492 88.4449H44.1421L44.7161 86.6512H69.7654L70.3394 84.8574H94.3215L94.8954 83.0637H120.214L118.483 88.4449H118.492ZM171.478 83.0637C171.254 84.122 170.967 85.1983 170.608 86.3104C170.375 87.0368 170.124 87.7453 169.846 88.4449H143.218C143.559 87.7812 143.846 87.0727 144.088 86.3104C144.474 85.1175 144.671 84.0413 144.689 83.0637H171.469H171.478ZM120.797 81.27H46.456L47.03 79.4763H72.0793L72.6533 77.6826H96.6354L97.2093 75.8888H122.528L120.797 81.27ZM171.918 75.8888C172.097 77.5749 172.061 79.3687 171.783 81.27H144.492C143.568 77.6018 139.335 75.8888 132.384 75.8888H171.909H171.918ZM169.425 68.714C170.483 70.3283 171.227 72.122 171.64 74.0951H48.7699L49.3439 72.3014H74.3932L74.9672 70.5077H98.9493L99.5232 68.714H169.416H169.425ZM160.097 61.5391C163.407 62.8664 166.079 64.6781 168.052 66.9202H51.0748L51.6488 65.1265H76.6981L77.2721 63.3328H101.254L101.828 61.5391H160.088H160.097Z" fill="url(#paint0_linear_1353_24410)"/>
<path d="M1.61426 178.476C1.61443 189.472 10.5285 198.386 21.5244 198.386H36.8594C37.305 198.386 37.6668 198.747 37.667 199.192C37.667 199.638 37.3051 200 36.8594 200H21.5244C9.82267 200 0.301724 190.662 0.00683594 179.031L0 178.476V159.549C0 159.104 0.361364 158.742 0.807129 158.742C1.25289 158.742 1.61426 159.104 1.61426 159.549V178.476ZM200 178.476L199.993 179.031C199.703 190.477 190.477 199.703 179.031 199.993L178.476 200H155.066C154.621 200 154.259 199.638 154.259 199.192C154.259 198.747 154.62 198.386 155.065 198.386H178.476C189.472 198.386 198.386 189.472 198.386 178.476V159.549C198.386 159.104 198.747 158.742 199.193 158.742C199.639 158.742 200 159.104 200 159.549V178.476ZM36.8594 0C37.305 0 37.6668 0.361067 37.667 0.806641C37.667 1.25241 37.3051 1.61426 36.8594 1.61426H21.5244C10.5284 1.61439 1.61439 10.5284 1.61426 21.5244V41.3433C1.61426 41.789 1.25289 42.1504 0.807129 42.1504C0.361364 42.1504 0 41.789 0 41.3433V21.5244C0.000130661 9.63687 9.63687 0.000133875 21.5244 0H36.8594ZM179.031 0.00683594C190.662 0.301685 200 9.82265 200 21.5244V41.3433C200 41.789 199.639 42.1504 199.193 42.1504C198.747 42.1504 198.386 41.789 198.386 41.3433V21.5244C198.386 10.5284 189.472 1.61439 178.476 1.61426H155.066C154.621 1.61426 154.259 1.25241 154.259 0.806641C154.259 0.36123 154.62 0.00026371 155.065 0H178.476L179.031 0.00683594Z" fill="#80001E"/>
<defs>
<linearGradient id="paint0_linear_1353_24410" x1="21.6937" y1="104.14" x2="113.173" y2="104.14" gradientUnits="userSpaceOnUse">
<stop stop-color="#200000"/>
<stop offset="1" stop-color="#FF003C"/>
</linearGradient>
</defs>
</svg>
