<svg xmlns="http://www.w3.org/2000/svg" width="20" height="20" viewBox="0 0 20 20" fill="none">
  <path d="M18.0371 19.5666L11.9194 13.4488C11.3731 13.8858 10.745 14.2317 10.0349 14.4866C9.32476 14.7416 8.56914 14.869 7.768 14.869C5.78336 14.869 4.10388 14.1818 2.72956 12.8075C1.35452 11.4325 0.666992 9.75264 0.666992 7.768C0.666992 5.78336 1.35452 4.10352 2.72956 2.72847C4.10388 1.35415 5.78336 0.666992 7.768 0.666992C9.75264 0.666992 11.4325 1.35415 12.8075 2.72847C14.1818 4.10352 14.869 5.78336 14.869 7.768C14.869 8.56914 14.7416 9.32476 14.4866 10.0349C14.2317 10.745 13.8858 11.3731 13.4488 11.9194L19.5939 18.0645C19.7942 18.2647 19.8943 18.5106 19.8943 18.8019C19.8943 19.0932 19.7851 19.3481 19.5666 19.5666C19.3663 19.7669 19.1114 19.867 18.8019 19.867C18.4923 19.867 18.2374 19.7669 18.0371 19.5666ZM7.768 12.6841C9.13358 12.6841 10.2945 12.2063 11.2508 11.2508C12.2063 10.2945 12.6841 9.13358 12.6841 7.768C12.6841 6.40242 12.2063 5.2415 11.2508 4.28523C10.2945 3.32969 9.13358 2.85192 7.768 2.85192C6.40242 2.85192 5.2415 3.32969 4.28523 4.28523C3.32969 5.2415 2.85192 6.40242 2.85192 7.768C2.85192 9.13358 3.32969 10.2945 4.28523 11.2508C5.2415 12.2063 6.40242 12.6841 7.768 12.6841Z" fill="#9E9E9E"/>
</svg>