<svg width="16" height="16" viewBox="0 0 16 16" fill="none" xmlns="http://www.w3.org/2000/svg">
<path d="M7.99967 4.66667C7.26329 4.66667 6.66634 4.06971 6.66634 3.33333C6.66634 2.59695 7.26329 2 7.99967 2C8.73605 2 9.33301 2.59695 9.33301 3.33333C9.33301 4.06971 8.73605 4.66667 7.99967 4.66667Z" fill="white" fill-opacity="0.2"/>
<path d="M7.99967 9.33333C7.26329 9.33333 6.66634 8.73638 6.66634 8C6.66634 7.26362 7.26329 6.66667 7.99967 6.66667C8.73605 6.66667 9.33301 7.26362 9.33301 8C9.33301 8.73638 8.73605 9.33333 7.99967 9.33333Z" fill="white" fill-opacity="0.2"/>
<path d="M7.99967 14C7.26329 14 6.66634 13.403 6.66634 12.6667C6.66634 11.9303 7.26329 11.3333 7.99967 11.3333C8.73605 11.3333 9.33301 11.9303 9.33301 12.6667C9.33301 13.403 8.73605 14 7.99967 14Z" fill="white" fill-opacity="0.2"/>
</svg>
